<svg id="Layer_2" height="16" viewBox="0 0 48 48" width="16" xmlns="http://www.w3.org/2000/svg" xmlns:xlink="http://www.w3.org/1999/xlink" data-name="Layer 2"><linearGradient id="New_Gradient_Swatch" gradientUnits="userSpaceOnUse" x2="48" y1="24" y2="24"><stop offset="0" stop-color="#87f1fc"/><stop offset=".2557" stop-color="#7fd4fb"/><stop offset=".5295" stop-color="#78bcfb"/><stop offset=".7844" stop-color="#74aefa"/><stop offset="1" stop-color="#73a9fa"/></linearGradient><path d="m24 0a24 24 0 1 0 24 24 24.0272 24.0272 0 0 0 -24-24zm8 36h-16a2 2 0 0 1 0-4h16a2 2 0 0 1 0 4zm0-10h-16a2 2 0 0 1 0-4h16a2 2 0 0 1 0 4zm0-10h-16a2 2 0 0 1 0-4h16a2 2 0 0 1 0 4z" fill="url(#New_Gradient_Swatch)"/></svg>