<svg width="11" height="12" viewBox="0 0 11 12" fill="none" xmlns="http://www.w3.org/2000/svg">
<path d="M2.44444 8.4H6.72222V9.6H2.44444V8.4ZM2.44444 6H8.55556V7.2H2.44444V6ZM2.44444 3.6H8.55556V4.8H2.44444V3.6ZM9.77778 1.2H7.22333C6.96667 0.504 6.29444 0 5.5 0C4.70556 0 4.03333 0.504 3.77667 1.2H1.22222C1.13667 1.2 1.05722 1.206 0.977778 1.224C0.739444 1.272 0.525556 1.392 0.360555 1.554C0.250555 1.662 0.158889 1.794 0.0977778 1.938C0.0366667 2.076 0 2.232 0 2.4V10.8C0 10.962 0.0366667 11.124 0.0977778 11.268C0.158889 11.412 0.250555 11.538 0.360555 11.652C0.525556 11.814 0.739444 11.934 0.977778 11.982C1.05722 11.994 1.13667 12 1.22222 12H9.77778C10.45 12 11 11.46 11 10.8V2.4C11 1.74 10.45 1.2 9.77778 1.2ZM5.5 1.05C5.75056 1.05 5.95833 1.254 5.95833 1.5C5.95833 1.746 5.75056 1.95 5.5 1.95C5.24944 1.95 5.04167 1.746 5.04167 1.5C5.04167 1.254 5.24944 1.05 5.5 1.05ZM9.77778 10.8H1.22222V2.4H9.77778V10.8Z" fill="#515151"/>
</svg>
