<svg width="25" height="25" viewBox="0 0 25 25" fill="none" xmlns="http://www.w3.org/2000/svg">
<g clip-path="url(#clip0_18_419)">
<path d="M19.7917 4.16665H18.75V2.08331H16.6667V4.16665H8.33333V2.08331H6.25V4.16665H5.20833C4.05208 4.16665 3.13542 5.10415 3.13542 6.24998L3.125 20.8333C3.125 21.9791 4.05208 22.9166 5.20833 22.9166H19.7917C20.9375 22.9166 21.875 21.9791 21.875 20.8333V6.24998C21.875 5.10415 20.9375 4.16665 19.7917 4.16665ZM19.7917 20.8333H5.20833V10.4166H19.7917V20.8333ZM9.375 14.5833H7.29167V12.5H9.375V14.5833ZM13.5417 14.5833H11.4583V12.5H13.5417V14.5833ZM17.7083 14.5833H15.625V12.5H17.7083V14.5833ZM9.375 18.75H7.29167V16.6666H9.375V18.75ZM13.5417 18.75H11.4583V16.6666H13.5417V18.75ZM17.7083 18.75H15.625V16.6666H17.7083V18.75Z" fill="black"/>
</g>
<defs>
<clipPath id="clip0_18_419">
<rect width="25" height="25" fill="white"/>
</clipPath>
</defs>
</svg>
