<svg width="31" height="31" viewBox="0 0 31 31" fill="none" xmlns="http://www.w3.org/2000/svg">
<g clip-path="url(#clip0_7_473)">
<path d="M15.5 19.6333C17.7828 19.6333 19.6334 17.7827 19.6334 15.5C19.6334 13.2172 17.7828 11.3666 15.5 11.3666C13.2173 11.3666 11.3667 13.2172 11.3667 15.5C11.3667 17.7827 13.2173 19.6333 15.5 19.6333Z" fill="white"/>
<path d="M11.625 2.58331L9.26129 5.16665H5.16671C3.74587 5.16665 2.58337 6.32915 2.58337 7.74998V23.25C2.58337 24.6708 3.74587 25.8333 5.16671 25.8333H25.8334C27.2542 25.8333 28.4167 24.6708 28.4167 23.25V7.74998C28.4167 6.32915 27.2542 5.16665 25.8334 5.16665H21.7388L19.375 2.58331H11.625ZM15.5 21.9583C11.935 21.9583 9.04171 19.065 9.04171 15.5C9.04171 11.935 11.935 9.04165 15.5 9.04165C19.065 9.04165 21.9584 11.935 21.9584 15.5C21.9584 19.065 19.065 21.9583 15.5 21.9583Z" fill="white"/>
</g>
<defs>
<clipPath id="clip0_7_473">
<rect width="31" height="31" fill="white"/>
</clipPath>
</defs>
</svg>
