<svg width="13" height="14" viewBox="0 0 13 14" fill="none" xmlns="http://www.w3.org/2000/svg">
<path d="M6 0.333374L2.33333 6.33337H9.66667L6 0.333374ZM6 2.89337L7.28667 5.00004H4.70667L6 2.89337ZM9.66667 7.66671C8.00667 7.66671 6.66667 9.00671 6.66667 10.6667C6.66667 12.3267 8.00667 13.6667 9.66667 13.6667C11.3267 13.6667 12.6667 12.3267 12.6667 10.6667C12.6667 9.00671 11.3267 7.66671 9.66667 7.66671ZM9.66667 12.3334C8.74667 12.3334 8 11.5867 8 10.6667C8 9.74671 8.74667 9.00004 9.66667 9.00004C10.5867 9.00004 11.3333 9.74671 11.3333 10.6667C11.3333 11.5867 10.5867 12.3334 9.66667 12.3334ZM0 13.3334H5.33333V8.00004H0V13.3334ZM1.33333 9.33337H4V12H1.33333V9.33337Z" fill="#515151"/>
</svg>
