<svg width="12" height="7" viewBox="0 0 12 7" fill="none" xmlns="http://www.w3.org/2000/svg">
<path d="M5.99999 6.975C5.86665 6.975 5.73765 6.95 5.61299 6.9C5.48765 6.85 5.38332 6.78334 5.29999 6.7L0.699987 2.1C0.516654 1.91667 0.424988 1.68334 0.424988 1.4C0.424988 1.11667 0.516654 0.883336 0.699987 0.700003C0.883321 0.516669 1.11665 0.425003 1.39999 0.425003C1.68332 0.425003 1.91665 0.516669 2.09999 0.700003L5.99999 4.6L9.89999 0.700003C10.0833 0.516669 10.3167 0.425003 10.6 0.425003C10.8833 0.425003 11.1167 0.516669 11.3 0.700003C11.4833 0.883336 11.575 1.11667 11.575 1.4C11.575 1.68334 11.4833 1.91667 11.3 2.1L6.69999 6.7C6.59999 6.8 6.49165 6.87067 6.37499 6.912C6.25832 6.954 6.13332 6.975 5.99999 6.975Z" fill="#747474"/>
</svg>
