<svg height="15" viewBox="0 0 32 32" width="15" xmlns="http://www.w3.org/2000/svg"><g id="Folder"><path d="m28 5h-9a1 1 0 0 0 0 2h9a2.0023 2.0023 0 0 1 2 2v1h-11.42l-2.56-4.48a5.0112 5.0112 0 0 0 -4.3413-2.52h-8.6787a3.0033 3.0033 0 0 0 -3 3v20a3.0033 3.0033 0 0 0 3 3h26a3.0033 3.0033 0 0 0 3-3v-17a4.0042 4.0042 0 0 0 -4-4zm2 21a1.0009 1.0009 0 0 1 -1 1h-26a1.0013 1.0013 0 0 1 -1-1v-20a1.0013 1.0013 0 0 1 1-1h8.6787a3.0073 3.0073 0 0 1 2.605 1.5117l2.56 4.48a2.0029 2.0029 0 0 0 1.7363 1.0083h11.42z" fill="rgb(0,0,0)"/></g></svg>