<svg width="13" height="13" viewBox="0 0 13 13" fill="none" xmlns="http://www.w3.org/2000/svg">
<path d="M6.125 12.0312C5.88594 12.0312 5.68569 11.9502 5.52425 11.7882C5.36225 11.6268 5.28125 11.4266 5.28125 11.1875V6.96875H1.0625C0.823438 6.96875 0.622906 6.88775 0.460906 6.72575C0.299469 6.56431 0.21875 6.36406 0.21875 6.125C0.21875 5.88594 0.299469 5.68541 0.460906 5.52341C0.622906 5.36197 0.823438 5.28125 1.0625 5.28125H5.28125V1.0625C5.28125 0.823438 5.36225 0.622906 5.52425 0.460906C5.68569 0.299469 5.88594 0.21875 6.125 0.21875C6.36406 0.21875 6.56459 0.299469 6.72659 0.460906C6.88803 0.622906 6.96875 0.823438 6.96875 1.0625V5.28125H11.1875C11.4266 5.28125 11.6268 5.36197 11.7882 5.52341C11.9502 5.68541 12.0312 5.88594 12.0312 6.125C12.0312 6.36406 11.9502 6.56431 11.7882 6.72575C11.6268 6.88775 11.4266 6.96875 11.1875 6.96875H6.96875V11.1875C6.96875 11.4266 6.88803 11.6268 6.72659 11.7882C6.56459 11.9502 6.36406 12.0312 6.125 12.0312Z" fill="#6F6F6F"/>
</svg>
