<svg width="13" height="12" viewBox="0 0 13 12" fill="none" xmlns="http://www.w3.org/2000/svg">
<path d="M1.31114 9.88232V9.42349C1.31114 9.18349 1.41604 8.95761 1.57993 8.85173C2.68785 8.13879 3.9531 7.76467 5.24458 7.76467C5.26425 7.76467 5.27736 7.76467 5.29702 7.77173C5.36258 7.27761 5.4937 6.80467 5.68381 6.37408C5.53959 6.35996 5.39536 6.35291 5.24458 6.35291C3.65809 6.35291 2.1765 6.82585 0.911246 7.63761C0.334342 8.00467 0 8.69644 0 9.42349V11.2941H6.0706C5.79526 10.8706 5.57892 10.3906 5.43469 9.88232H1.31114Z" fill="#515151"/>
<path d="M5.24458 5.64706C6.69339 5.64706 7.86687 4.38353 7.86687 2.82353C7.86687 1.26353 6.69339 0 5.24458 0C3.79576 0 2.62229 1.26353 2.62229 2.82353C2.62229 4.38353 3.79576 5.64706 5.24458 5.64706ZM5.24458 1.41176C5.96571 1.41176 6.55572 2.04706 6.55572 2.82353C6.55572 3.6 5.96571 4.23529 5.24458 4.23529C4.52345 4.23529 3.93343 3.6 3.93343 2.82353C3.93343 2.04706 4.52345 1.41176 5.24458 1.41176Z" fill="#515151"/>
<path d="M12.292 8.4707C12.292 8.3154 12.2723 8.17423 12.2526 8.02599L13 7.31305L12.3444 6.09187L11.3938 6.43775C11.1841 6.24717 10.9481 6.09893 10.6858 5.99305L10.4892 4.94128H9.17801L8.98134 5.99305C8.71911 6.09893 8.4831 6.24717 8.27332 6.43775L7.32274 6.09187L6.66717 7.31305L7.41452 8.02599C7.39485 8.17423 7.37519 8.3154 7.37519 8.4707C7.37519 8.62599 7.39485 8.76717 7.41452 8.9154L6.66717 9.62834L7.32274 10.8495L8.27332 10.5036C8.4831 10.6942 8.71911 10.8425 8.98134 10.9483L9.17801 12.0001H10.4892L10.6858 10.9483C10.9481 10.8425 11.1841 10.6942 11.3938 10.5036L12.3444 10.8495L13 9.62834L12.2526 8.9154C12.2723 8.76717 12.292 8.62599 12.292 8.4707ZM9.83358 9.88246C9.11245 9.88246 8.52244 9.24717 8.52244 8.4707C8.52244 7.69423 9.11245 7.05893 9.83358 7.05893C10.5547 7.05893 11.1447 7.69423 11.1447 8.4707C11.1447 9.24717 10.5547 9.88246 9.83358 9.88246Z" fill="#515151"/>
</svg>
